<svg width="16" height="17" viewBox="0 0 16 17" fill="none" xmlns="http://www.w3.org/2000/svg">
<g clip-path="url(#clip0_2743_27295)">
<path d="M12.4999 6.25C12.5312 4.89127 12.0225 3.57557 11.0852 2.59141C10.1479 1.60724 8.85854 1.03494 7.4999 1C6.14126 1.03494 4.85193 1.60724 3.91463 2.59141C2.97733 3.57557 2.46856 4.89127 2.4999 6.25C2.48267 7.40321 2.8497 8.52937 3.54315 9.45095C4.2366 10.3725 5.21704 11.0371 6.3299 11.34L5.86323 12.2733C5.82518 12.3496 5.80723 12.4343 5.8111 12.5194C5.81497 12.6045 5.84052 12.6872 5.88534 12.7597C5.93015 12.8321 5.99274 12.8919 6.06716 12.9334C6.14158 12.9749 6.22537 12.9967 6.31057 12.9967H8.6919C8.7771 12.9967 8.86089 12.9749 8.93531 12.9334C9.00973 12.8919 9.07232 12.8321 9.11713 12.7597C9.16195 12.6872 9.1875 12.6045 9.19137 12.5194C9.19524 12.4343 9.17729 12.3496 9.13923 12.2733L8.67257 11.34C9.78494 11.0366 10.7648 10.3718 11.4577 9.45029C12.1506 8.52875 12.5173 7.40286 12.4999 6.25V6.25Z" stroke="#FFB321" stroke-width="1.5" stroke-linecap="round" stroke-linejoin="round"/>
<path d="M7.5 13V14C7.5 14.2652 7.60536 14.5196 7.79289 14.7071C7.98043 14.8946 8.23478 15 8.5 15H9.5C9.76522 15 10.0196 14.8946 10.2071 14.7071C10.3946 14.5196 10.5 14.2652 10.5 14C10.5 13.7348 10.6054 13.4804 10.7929 13.2929C10.9804 13.1054 11.2348 13 11.5 13C11.7652 13 12.0196 13.1054 12.2071 13.2929C12.3946 13.4804 12.5 13.7348 12.5 14V16" stroke="#FFB321" stroke-width="1.5" stroke-linecap="round" stroke-linejoin="round"/>
</g>
<defs>
<clipPath id="clip0_2743_27295">
<rect width="16" height="16" fill="white" transform="translate(0 0.5)"/>
</clipPath>
</defs>
</svg>
