<svg width="41" height="40" viewBox="0 0 41 40" fill="none" xmlns="http://www.w3.org/2000/svg">
<g clip-path="url(#clip0_2825_31731)">
<path fill-rule="evenodd" clip-rule="evenodd" d="M8 35H36.3333C37.714 35 38.8333 33.8807 38.8333 32.5V14.1666C38.8333 12.7859 37.714 11.6666 36.3333 11.6666H18.8333L14.5656 7.39886C14.0967 6.93002 13.4608 6.66663 12.7978 6.66663H8C6.61929 6.66663 5.5 7.78591 5.5 9.16663V32.5C5.5 33.8807 6.61929 35 8 35Z" fill="#D1822C"/>
<path fill-rule="evenodd" clip-rule="evenodd" d="M4.66675 31.6667H33.0001C34.3808 31.6667 35.5001 30.5474 35.5001 29.1667V10.8334C35.5001 9.45266 34.3808 8.33337 33.0001 8.33337H15.5001L11.2323 4.06561C10.7635 3.59677 10.1276 3.33337 9.46455 3.33337H4.66675C3.28604 3.33337 2.16675 4.45266 2.16675 5.83337V29.1667C2.16675 30.5474 3.28604 31.6667 4.66675 31.6667Z" fill="#F3B357"/>
<path fill-rule="evenodd" clip-rule="evenodd" d="M24.5603 22.5094H21.2995V25.8555C21.2995 26.3157 20.9264 26.6888 20.4662 26.6888H18.7607C18.3005 26.6888 17.9274 26.3157 17.9274 25.8555V22.5094H14.6666C14.2063 22.5094 13.8333 22.1363 13.8333 21.6761C13.8333 21.4789 13.9032 21.2881 14.0306 21.1376L18.9775 15.2948C19.2749 14.9436 19.8007 14.8999 20.1519 15.1973C20.1871 15.2271 20.2197 15.2597 20.2495 15.2948L25.1963 21.1376C25.4937 21.4888 25.4501 22.0147 25.0988 22.3121C24.9483 22.4395 24.7575 22.5094 24.5603 22.5094Z" fill="#EB9B2C"/>
</g>
<defs>
<clipPath id="clip0_2825_31731">
<rect width="40" height="40" fill="white" transform="translate(0.5)"/>
</clipPath>
</defs>
</svg>
