<svg width="290" height="170" viewBox="0 0 290 170" fill="none" xmlns="http://www.w3.org/2000/svg">
<g clip-path="url(#clip0_1660_90034)">
<path d="M279.766 168.482C274.411 168.482 263.436 168.963 263.319 169.182H235.649L227.556 169.161H155.038L133.861 169.138H78.0331L54.7157 169.117H12.5483L12.3389 168.589L12.3156 168.545C12.3042 168.525 12.2963 168.503 12.2923 168.48C12.1993 168.305 -22.798 98.5206 34.9835 64.1202C57.5917 50.6609 45.6781 23.7837 79.1398 7.50304C122.282 -13.4896 134.041 17.0121 185.054 9.63752C229.362 3.23309 249.55 23.6299 246.44 53.9658C244.979 68.2151 255.007 79.1374 264.9 81.0958C292.189 86.5008 291.211 118.159 288.976 141.417C287.608 155.758 279.955 168.482 279.766 168.482Z" fill="white"/>
<g opacity="0.5">
<path d="M148.767 137.512L146.744 136.298C146.662 136.247 146.596 136.175 146.552 136.089C146.509 136.004 146.49 135.907 146.497 135.811C146.519 135.563 146.529 135.311 146.529 135.056C146.532 134.592 146.498 134.128 146.427 133.67C146.411 133.568 146.425 133.463 146.468 133.369C146.512 133.275 146.582 133.196 146.671 133.143L148.779 131.87C148.889 131.805 148.97 131.7 149.006 131.578C149.042 131.455 149.03 131.324 148.973 131.21L147.98 129.186C147.925 129.077 147.832 128.992 147.719 128.946C147.605 128.9 147.479 128.896 147.363 128.937L145.232 129.711C145.13 129.749 145.019 129.753 144.914 129.722C144.81 129.692 144.719 129.628 144.653 129.542C144.064 128.78 143.357 128.117 142.56 127.577C142.466 127.512 142.396 127.418 142.362 127.309C142.327 127.2 142.329 127.083 142.367 126.975L142.84 125.679C142.883 125.559 142.881 125.428 142.833 125.309C142.786 125.191 142.697 125.094 142.583 125.037L140.575 124.055C140.536 124.034 140.493 124.019 140.449 124.011C140.346 123.99 140.24 124.002 140.144 124.044C140.049 124.086 139.969 124.157 139.915 124.247L139.004 125.754L138.783 126.121C138.362 126.062 137.938 126.032 137.513 126.031C136.946 126.031 136.379 126.084 135.821 126.188C135.72 126.208 135.615 126.197 135.52 126.155C135.426 126.113 135.347 126.043 135.294 125.954L134.271 124.255C134.204 124.142 134.097 124.059 133.972 124.022C133.847 123.984 133.712 123.995 133.594 124.053L132.05 124.811L131.607 125.03C131.49 125.087 131.398 125.185 131.349 125.306C131.301 125.427 131.298 125.561 131.343 125.683L131.987 127.465C132.025 127.564 132.031 127.673 132.003 127.775C131.976 127.878 131.916 127.969 131.833 128.035C131.332 128.444 130.876 128.904 130.473 129.409C130.437 129.449 130.403 129.491 130.371 129.534C130.361 129.549 130.348 129.563 130.335 129.576C130.265 129.65 130.176 129.701 130.077 129.724C129.978 129.747 129.875 129.74 129.78 129.704L127.675 128.945C127.652 128.936 127.628 128.929 127.603 128.924C127.491 128.902 127.375 128.917 127.272 128.967C127.17 129.018 127.086 129.1 127.035 129.202L126.053 131.203C125.996 131.319 125.985 131.453 126.021 131.578C126.057 131.702 126.139 131.809 126.25 131.876L128.356 133.144C128.444 133.195 128.514 133.273 128.556 133.365C128.599 133.457 128.613 133.561 128.595 133.661C128.526 134.122 128.492 134.587 128.494 135.054C128.494 135.306 128.504 135.555 128.525 135.802C128.533 135.9 128.513 135.999 128.468 136.086C128.423 136.174 128.355 136.247 128.27 136.298L126.247 137.522C126.139 137.587 126.059 137.691 126.024 137.812C125.988 137.934 125.999 138.064 126.055 138.178L127.039 140.175C127.097 140.293 127.195 140.385 127.316 140.434C127.437 140.482 127.572 140.485 127.695 140.44L129.382 139.828C129.491 139.79 129.61 139.788 129.72 139.825C129.83 139.862 129.925 139.934 129.989 140.031C130.507 140.814 131.142 141.512 131.874 142.1C131.959 142.168 132.021 142.261 132.051 142.366C132.081 142.47 132.076 142.582 132.038 142.684L131.35 144.582C131.305 144.705 131.308 144.84 131.356 144.961C131.405 145.082 131.497 145.181 131.614 145.239L133.606 146.22C133.722 146.276 133.854 146.287 133.977 146.251C134.1 146.215 134.204 146.133 134.27 146.023L134.324 145.936L135.381 144.185C135.436 144.094 135.517 144.022 135.614 143.979C135.711 143.935 135.819 143.922 135.923 143.942C136.449 144.035 136.983 144.082 137.517 144.082C137.808 144.082 138.093 144.067 138.378 144.042C138.475 144.031 138.573 144.048 138.66 144.091C138.747 144.134 138.82 144.202 138.87 144.286L139.908 146.011C139.976 146.125 140.084 146.209 140.212 146.247C140.339 146.284 140.476 146.272 140.595 146.214L142.584 145.234C142.639 145.206 142.688 145.17 142.731 145.126C142.797 145.056 142.843 144.969 142.863 144.875C142.883 144.781 142.876 144.683 142.844 144.592L142.325 143.17C142.296 143.085 142.288 142.994 142.304 142.905C142.32 142.816 142.358 142.733 142.415 142.664C142.447 142.626 142.483 142.592 142.523 142.563C143.526 141.895 144.386 141.033 145.052 140.028C145.106 139.944 145.184 139.879 145.276 139.84C145.367 139.8 145.469 139.789 145.567 139.807C145.595 139.812 145.623 139.82 145.651 139.829L147.355 140.45C147.475 140.493 147.606 140.491 147.724 140.444C147.843 140.396 147.939 140.307 147.995 140.193L148.019 140.146L148.978 138.198C149.036 138.078 149.046 137.941 149.007 137.813C148.968 137.686 148.882 137.579 148.767 137.512ZM132.834 133.668C132.935 133.306 133.071 132.954 133.238 132.617C133.573 131.945 134.399 131.115 135.071 130.783C135.144 130.747 135.216 130.714 135.288 130.682C139.694 128.702 143.945 133.028 141.809 137.438C141.528 138.015 140.908 138.69 140.304 139.109C140.173 139.2 140.036 139.281 139.893 139.351C139.321 139.634 138.705 139.816 138.072 139.891C134.672 140.268 131.875 137.145 132.835 133.668H132.834Z" fill="#560000" fill-opacity="0.3"/>
</g>
<path d="M129.878 37.6758L124.87 35.3491C124.666 35.2524 124.493 35.1013 124.37 34.9124C124.247 34.7235 124.178 34.5043 124.172 34.2789C124.156 33.6935 124.116 33.1041 124.052 32.5106C123.939 31.4296 123.74 30.3594 123.458 29.3099C123.392 29.076 123.398 28.8277 123.476 28.5975C123.554 28.3673 123.699 28.1661 123.894 28.0201L128.482 24.5311C128.721 24.3511 128.883 24.0874 128.935 23.793C128.988 23.4985 128.927 23.1952 128.764 22.9439L125.943 18.4868C125.789 18.2442 125.551 18.0669 125.274 17.9885C124.997 17.9102 124.702 17.9363 124.443 18.0619L119.673 20.4028C119.446 20.5173 119.187 20.5549 118.937 20.51C118.686 20.4652 118.457 20.3402 118.283 20.1539C116.718 18.5293 114.905 17.1635 112.912 16.1075C112.676 15.9799 112.49 15.778 112.381 15.5334C112.273 15.2888 112.248 15.0152 112.311 14.755L113.086 11.6191C113.155 11.3285 113.116 11.0226 112.976 10.7588C112.835 10.4951 112.604 10.2916 112.324 10.1866L107.398 8.40622C107.301 8.36785 107.199 8.34432 107.095 8.33642C106.85 8.31245 106.604 8.3657 106.391 8.48872C106.179 8.61173 106.01 8.79833 105.908 9.02228L104.169 12.7652L103.747 13.6756C102.751 13.6424 101.755 13.6795 100.765 13.7869C99.4433 13.9289 98.1374 14.1941 96.8647 14.579C96.6339 14.6512 96.3865 14.6504 96.1562 14.5767C95.9259 14.503 95.7239 14.36 95.5779 14.1673L92.7647 10.4668C92.5795 10.2238 92.3097 10.059 92.0089 10.0053C91.7081 9.95152 91.398 10.0126 91.1401 10.1765L87.732 12.3343L86.7568 12.9544C86.4989 13.1168 86.3101 13.3688 86.2268 13.662C86.1436 13.9552 86.1716 14.2688 86.3056 14.5426L88.258 18.5303C88.3717 18.7516 88.4122 19.0033 88.3737 19.2491C88.3352 19.4949 88.2195 19.7221 88.0435 19.898C86.9791 20.9738 86.0332 22.1608 85.2222 23.4386C85.1472 23.5414 85.0777 23.6481 85.0138 23.7582C84.9926 23.7941 84.9682 23.8279 84.941 23.8594C84.7975 24.0488 84.6011 24.1916 84.3766 24.2697C84.1522 24.3478 83.9096 24.3578 83.6795 24.2984L78.578 23.0481C78.5215 23.0323 78.4636 23.0221 78.405 23.0177C78.1384 22.9944 77.8714 23.0591 77.645 23.202C77.4186 23.3449 77.2453 23.558 77.1517 23.8088L75.3692 28.7161C75.265 29.0021 75.2721 29.3168 75.389 29.5978C75.5059 29.8789 75.7242 30.1058 76.0005 30.2335L81.2254 32.6542C81.4421 32.7532 81.6237 32.9155 81.7463 33.1197C81.869 33.324 81.9268 33.5606 81.9122 33.7984C81.8631 34.8902 81.897 35.9842 82.0134 37.0709C82.0768 37.6576 82.1638 38.2359 82.2744 38.8058C82.3177 39.0325 82.2969 39.2668 82.2144 39.4823C82.1318 39.6978 81.9907 39.886 81.807 40.0258L77.3965 43.3883C77.1608 43.5681 77.001 43.8296 76.9486 44.1213C76.8961 44.413 76.9549 44.7138 77.1132 44.9644L79.9113 49.3689C80.0743 49.6294 80.3285 49.82 80.6243 49.9036C80.9201 49.9872 81.2364 49.9578 81.5117 49.8211L85.2859 47.9698C85.5294 47.8486 85.8065 47.8126 86.0728 47.8676C86.3392 47.9226 86.5793 48.0655 86.7548 48.2733C88.1578 49.9686 89.8153 51.436 91.6681 52.6232C91.8831 52.7592 92.05 52.9593 92.1451 53.1953C92.2402 53.4313 92.2588 53.6912 92.1982 53.9383L91.0723 58.5319C91.0008 58.8298 91.041 59.1434 91.1853 59.4136C91.3296 59.6837 91.568 59.8916 91.8552 59.9977L96.7443 61.7761C97.0262 61.8792 97.3366 61.8724 97.6138 61.7571C97.891 61.6419 98.1147 61.4266 98.2405 61.154L98.3416 60.9365L100.365 56.5917C100.469 56.365 100.64 56.1756 100.855 56.049C101.07 55.9224 101.319 55.8647 101.568 55.8836C102.817 55.9702 104.072 55.9458 105.317 55.8107C105.993 55.7369 106.655 55.6287 107.312 55.4971C107.535 55.4491 107.767 55.4654 107.98 55.5442C108.194 55.6231 108.38 55.7611 108.518 55.9422L111.373 59.6983C111.56 59.9464 111.834 60.1152 112.139 60.1714C112.445 60.2276 112.761 60.1671 113.024 60.0018L117.423 57.2169C117.543 57.1381 117.648 57.0407 117.737 56.9286C117.873 56.7482 117.957 56.5339 117.979 56.3092C118.002 56.0845 117.963 55.8578 117.865 55.6539L116.296 52.4735C116.204 52.2814 116.163 52.0686 116.177 51.8559C116.191 51.6431 116.26 51.4377 116.377 51.2596C116.442 51.1653 116.519 51.0796 116.605 51.0046C118.77 49.1945 120.551 46.9703 121.845 44.4626C121.952 44.2562 122.118 44.0857 122.321 43.9719C122.523 43.8581 122.755 43.8061 122.987 43.8223C123.055 43.8277 123.123 43.8385 123.19 43.8547L127.317 44.8663C127.606 44.9368 127.912 44.8983 128.175 44.7582C128.438 44.6181 128.64 44.3862 128.743 44.1065L128.786 43.9922L130.527 39.2104C130.63 38.9198 130.62 38.6012 130.5 38.3172C130.38 38.0332 130.158 37.8044 129.878 37.6758ZM91.7946 32.7463C91.9413 31.8761 92.1692 31.0217 92.4754 30.194C93.0823 28.5471 94.797 26.4036 96.282 25.4608C96.4408 25.3596 96.5996 25.2635 96.7595 25.1674C106.524 19.4428 117.516 28.449 113.653 39.259C113.147 40.6752 111.873 42.403 110.572 43.532C110.29 43.776 109.99 43.9988 109.675 44.1986C108.413 45.0025 107.023 45.5841 105.564 45.9183C97.7428 47.6552 90.438 41.0859 91.7946 32.7463Z" fill="#560000" fill-opacity="0.3"/>
<path opacity="0.6" d="M202.061 151.872C200.454 152.479 189.807 153.599 190.246 154.948C190.685 156.296 198.126 157.656 201.98 155.941C201.98 155.941 198.85 167.372 192.986 167.503C187.122 167.633 184.903 164.258 181.282 164.406C177.66 164.555 175.15 165.83 177.058 166.584C178.967 167.339 184.966 165.971 188.157 168.094C188.625 168.404 189.079 168.701 189.496 168.975C189.747 169.143 189.986 169.304 190.204 169.462H168.878C168.878 169.289 168.878 169.126 168.878 168.975C168.87 168.501 168.837 168.028 168.777 167.558C168.777 167.558 157.738 162.984 161.64 154.543C161.64 154.543 164.934 149.255 168.929 147.523C168.929 147.523 168.107 159.518 170.346 159.533C172.584 159.549 170.299 146.099 170.299 146.099C170.299 146.099 180.586 139.564 184.915 139.473C184.915 139.473 179.504 151.732 181.677 151.195C183.851 150.658 190.074 138.163 190.074 138.163C190.074 138.163 201.012 134.772 203.59 141.186C206.167 147.601 203.67 151.262 202.061 151.872Z" fill="#560000" fill-opacity="0.3"/>
<path d="M31.594 159.908C26.88 155.135 34.123 146.708 34.123 146.708C34.123 146.708 47.6521 146 48.9713 144.267C50.2904 142.534 37.2863 142.616 37.2863 142.616C39.0404 138.797 48.8347 132.165 48.8347 132.165C48.8347 132.165 59.9228 139.402 60.7716 137.4C61.6203 135.398 50.6272 131.494 50.6272 131.494C53.7136 128.607 59.6952 127.718 59.6952 127.718C68.7187 127.507 68.5234 139.104 68.5234 139.104C68.5234 139.104 72.4201 141.532 78.3936 141.728C78.3936 141.728 79.5549 141.664 81.31 141.93L80.7547 142.883C80.4532 142.812 80.1561 142.755 79.8634 142.711H79.8503C79.6652 142.691 79.4001 142.663 79.0774 142.63C78.3369 142.59 77.8008 142.541 77.4245 142.489C75.1251 142.32 72.063 142.218 71.0828 142.773C70.9971 142.606 70.89 142.452 70.7641 142.314L71.0828 142.773C73.63 146.442 69.4642 154.943 65.8801 158.948C62.296 162.953 62.1716 160.224 61.5151 156.563C60.8585 152.902 64.3951 148.091 64.4619 146.1C64.5286 144.109 62.4215 145.849 60.8899 149.016C59.3584 152.184 61.507 155.465 59.1216 160.634C56.7363 165.802 45.3528 164.174 45.3528 164.174C48.3714 161.403 50.0355 154.253 49.0057 153.342C47.9758 152.431 42.8642 161.476 41.6999 162.672C40.5355 163.868 36.3091 164.683 31.594 159.908Z" fill="#560000" fill-opacity="0.2"/>
<path d="M52.322 85.5462C53.4439 80.9181 61.2372 82.1482 61.2372 82.1482C61.2372 82.1482 66.716 90.0508 68.2537 90.2015C69.7913 90.3523 64.8911 82.5336 64.8911 82.5336C67.851 82.1674 75.5129 85.6048 75.5129 85.6048C75.5129 85.6048 75.2833 94.9995 76.8108 94.7679C78.3383 94.5362 76.5892 86.4384 76.5892 86.4384C79.4844 87.2234 82.2542 90.503 82.2542 90.503C85.7503 95.8715 78.6762 100.083 78.6762 100.083C78.6762 100.083 78.6671 103.341 80.7762 107.021C81.1546 107.602 81.4777 108.217 81.7413 108.858L80.9573 108.879C80.8899 108.67 80.8137 108.468 80.7287 108.272V108.263C80.6721 108.143 80.5901 107.973 80.4889 107.766C80.2371 107.304 80.0661 106.957 79.9579 106.715C79.2022 105.263 78.1188 103.377 77.4187 102.992C77.4875 102.878 77.5409 102.756 77.5776 102.628L77.4187 102.992C76.1553 105.9 69.4656 106.556 65.7115 105.889C61.9575 105.223 63.5568 104.126 65.5223 102.364C67.4879 100.602 71.7123 100.94 72.9384 100.24C74.1644 99.5396 72.3314 98.9144 69.8449 99.1724C67.3584 99.4303 66.1819 101.952 62.1709 102.442C58.1599 102.931 54.8955 95.4497 54.8955 95.4497C57.6946 96.2377 62.6332 94.5737 62.7991 93.6106C62.965 92.6476 55.5955 92.9399 54.4393 92.683C53.283 92.426 51.1991 90.1752 52.322 85.5462Z" fill="#560000" fill-opacity="0.2"/>
<path opacity="0.5" d="M186.009 125.509C190.726 121.507 184.755 113.18 184.755 113.18C184.755 113.18 172.389 111.427 171.317 109.728C170.245 108.028 182.182 109.161 182.182 109.161C180.881 105.512 172.426 98.6264 172.426 98.6264C172.426 98.6264 161.656 104.37 161.035 102.463C160.414 100.557 170.83 97.8637 170.83 97.8637C168.232 94.9614 162.81 93.6595 162.81 93.6595C154.543 92.7318 153.779 103.397 153.779 103.397C153.779 103.397 150.004 105.307 144.502 105.005C143.607 104.904 142.705 104.888 141.808 104.956L142.24 105.878C142.523 105.836 142.8 105.807 143.072 105.792H143.084C143.256 105.792 143.501 105.783 143.8 105.78C144.483 105.804 144.979 105.803 145.329 105.78C147.453 105.812 150.277 105.969 151.129 106.556C151.222 106.411 151.333 106.278 151.459 106.161L151.129 106.556C148.492 109.719 151.635 117.864 154.592 121.831C157.549 125.799 157.895 123.304 158.794 119.995C159.694 116.686 156.839 111.983 156.939 110.149C157.039 108.315 158.833 110.084 159.982 113.117C161.131 116.149 158.891 118.984 160.662 123.929C162.432 128.873 173.018 128.296 173.018 128.296C170.472 125.506 169.524 118.806 170.544 118.051C171.564 117.296 175.523 126.021 176.495 127.212C177.467 128.404 181.292 129.509 186.009 125.509Z" fill="#560000" fill-opacity="0.3"/>
<path d="M121.545 68.7694H119.841V63.5557H125.52V65.2592H121.545V68.7694Z" fill="white"/>
<path d="M168.025 102.185H162.346V100.481H166.32V96.9719H168.025V102.185Z" fill="white"/>
<path d="M125.055 102.417H119.841V96.739H121.545V100.714H125.055V102.417Z" fill="white"/>
<path d="M288.567 168.462H0.416779C0.186598 168.462 0 168.649 0 168.879V169.288C0 169.518 0.186598 169.705 0.416779 169.705H288.567C288.797 169.705 288.983 169.518 288.983 169.288V168.879C288.983 168.649 288.797 168.462 288.567 168.462Z" fill="white"/>
<path d="M212.329 58.8162C212.349 57.9639 213.132 56.8503 216.29 56.6493C219.447 56.4482 220.62 56.593 221.914 59.0615C223.32 61.7189 224.927 64.69 223.878 67.4118C222.83 70.1336 219.524 71.7377 217.158 73.177C214.791 74.6163 211.268 79.4528 211.268 79.4528C211.268 79.4528 204.7 61.2043 212.329 58.8162Z" fill="#263238"/>
<path d="M213.771 95.2288C213.771 95.2288 218.555 119.809 220.254 129.804C222.018 140.197 223.504 162.558 223.504 162.558H226.164C226.164 162.558 229.55 143.26 226.164 128.927C226.393 117.486 224.155 93.689 224.155 93.689L213.771 95.2288Z" fill="#FFB27D"/>
<path d="M217.258 94.7104C217.258 94.7104 227.751 120.417 231.407 129.868C236.533 136.743 249.416 151.325 250.123 151.619L251.055 149.516C251.055 149.516 243.181 134.106 236.834 126.491C235.147 115.174 227.108 93.251 227.108 93.251L217.258 94.7104Z" fill="#FFB27D"/>
<path d="M211.037 79.0076C210.811 80.149 210.549 81.2652 210.294 82.3954C210.04 83.5256 209.749 84.6396 209.461 85.7606C209.174 86.8816 208.877 88.0031 208.545 89.1173C208.212 90.2315 207.872 91.3407 207.499 92.473L207.545 92.2854C207.487 92.567 207.388 92.8387 207.252 93.0917C207.137 93.2939 207.004 93.4848 206.853 93.6618C206.61 93.9436 206.333 94.1941 206.028 94.4076C205.525 94.7594 204.989 95.061 204.427 95.3079C203.417 95.7555 202.374 96.1262 201.308 96.4171C200.272 96.705 199.235 96.9426 198.193 97.1552C197.151 97.3678 196.105 97.541 195.05 97.6553C194.827 97.6806 194.604 97.6165 194.429 97.4772C194.254 97.3378 194.141 97.1346 194.116 96.9122C194.092 96.7177 194.138 96.5212 194.244 96.3568C194.351 96.1924 194.511 96.0706 194.698 96.0127C195.666 95.7083 196.656 95.3956 197.62 95.0607C198.584 94.7259 199.546 94.3875 200.479 94.0056C201.389 93.6519 202.276 93.2409 203.134 92.775C203.512 92.5719 203.87 92.3321 204.201 92.059C204.315 91.9641 204.419 91.8577 204.512 91.7415C204.53 91.7207 204.543 91.6961 204.549 91.6694C204.549 91.6694 204.525 91.6832 204.517 91.743L204.564 91.5553C204.87 90.4604 205.142 89.3852 205.411 88.2884L206.19 84.9672L207.7 78.302C207.793 77.8614 208.057 77.4758 208.434 77.2299C208.811 76.9841 209.27 76.8982 209.71 76.9911C210.151 77.0841 210.536 77.3483 210.782 77.7256C211.027 78.1029 211.113 78.5624 211.02 79.003L211.037 79.0076Z" fill="#FFB27D"/>
<path d="M195.398 95.8814L192.528 94.1613L193.06 97.4872C193.06 97.4872 195.077 98.1975 196.091 97.2626L195.398 95.8814Z" fill="#FFB27D"/>
<path d="M186.658 83.4572L186.256 84.8121C186.21 84.9637 186.21 85.1255 186.256 85.2771C186.302 85.4287 186.391 85.5635 186.513 85.6644L187.602 86.5489L188.751 83.3728L187.73 82.9707C187.628 82.928 187.519 82.9067 187.408 82.9083C187.298 82.9099 187.189 82.9342 187.088 82.9799C186.987 83.0256 186.897 83.0915 186.823 83.1736C186.749 83.2558 186.693 83.3523 186.658 83.4572Z" fill="#FFB27D"/>
<path d="M212.347 75.183C209.985 74.781 208.94 76.4293 207.812 77.6716C208.081 79.8667 211.949 84.3695 211.949 84.3695C211.949 84.3695 216.641 75.8826 212.347 75.183Z" fill="#F99746"/>
<path d="M209.208 77.8769C209.509 80.269 210.65 86.983 213.848 97.034L227.792 94.9755C226.828 89.9179 225.498 85.1377 226.113 75.0667C226.13 74.7889 226.09 74.5106 225.995 74.2489C225.9 73.9872 225.753 73.7478 225.562 73.5455C225.371 73.3431 225.141 73.1821 224.885 73.0724C224.629 72.9627 224.354 72.9067 224.076 72.9077C223.132 72.9077 221.967 72.9479 220.754 73.0685C218.716 73.2242 216.691 73.5238 214.696 73.9651C213.41 74.2787 212.048 74.6968 211.012 75.0345C210.429 75.2263 209.931 75.6144 209.602 76.1327C209.273 76.651 209.134 77.2674 209.208 77.8769Z" fill="#F99746"/>
<path d="M214.695 73.9566L220.753 73.0601C220.753 73.0601 220.476 75.3878 216.659 78.4473C213.759 75.7537 214.695 73.9566 214.695 73.9566Z" fill="white"/>
<path d="M219.145 66.322C219.049 68.3322 219.198 71.9505 220.752 73.0602C219.774 74.6472 218.434 75.9806 216.844 76.9519C216.243 76.7013 215.724 76.2885 215.344 75.7595C214.965 75.2306 214.74 74.6063 214.694 73.9567C216.791 73.1164 216.498 71.5123 215.9 70.0529L219.145 66.322Z" fill="#FFB27D"/>
<path opacity="0.2" d="M217.821 67.8459L215.896 70.0491C216.043 70.3878 216.158 70.739 216.242 71.0984C217.045 70.8572 218.062 69.7757 218.022 68.8912C218.019 68.5334 217.951 68.1791 217.821 67.8459Z" fill="black"/>
<path d="M220.672 62.4426C220.375 65.7272 220.319 67.1223 218.611 68.7626C216.04 71.2351 212.075 70.1536 211.38 66.8449C210.758 63.8698 211.344 58.9971 214.594 57.7789C215.311 57.5042 216.087 57.418 216.847 57.5286C217.607 57.6391 218.326 57.9427 218.936 58.4104C219.545 58.878 220.025 59.4942 220.329 60.2001C220.633 60.9059 220.751 61.678 220.672 62.4426Z" fill="#FFB27D"/>
<path d="M218.152 59.8855C217.863 61.8515 219.024 64.2597 220.028 64.2838C221.033 64.3079 221.788 60.5127 221.788 60.5127L218.152 59.8855Z" fill="#263238"/>
<path d="M212.572 58.8804C214.713 60.4001 221.077 62.6796 221.209 60.7137C221.342 58.7477 218.687 57.1597 216.722 57.1597C214.758 57.1597 213.175 57.9436 212.572 58.8804Z" fill="#263238"/>
<path opacity="0.2" d="M219.736 126.837L226.164 124.308C226.132 122.776 226.079 121.152 226.003 119.484L218.893 122.065C219.186 123.769 219.479 125.386 219.736 126.837Z" fill="black"/>
<path opacity="0.2" d="M234.56 116.344L227.128 119.054C227.714 120.509 228.281 121.924 228.811 123.259L235.64 120.561C235.311 119.198 234.962 117.783 234.56 116.344Z" fill="black"/>
<path d="M215.86 63.3068C215.86 63.5762 215.707 63.7893 215.53 63.7812C215.353 63.7732 215.221 63.5561 215.229 63.2907C215.237 63.0254 215.382 62.8083 215.558 62.8123C215.735 62.8163 215.868 63.0374 215.86 63.3068Z" fill="#263238"/>
<path d="M212.833 63.2213C212.841 62.9527 212.705 62.7309 212.529 62.726C212.354 62.721 212.206 62.9346 212.198 63.2032C212.191 63.4717 212.327 63.6935 212.502 63.6985C212.677 63.7035 212.825 63.4898 212.833 63.2213Z" fill="#263238"/>
<path d="M212.61 62.7443L211.972 62.5393C211.972 62.5393 212.289 63.0539 212.61 62.7443Z" fill="#263238"/>
<path d="M213.622 63.7053C213.366 64.3092 213.028 64.8747 212.617 65.3858C212.751 65.4879 212.906 65.5595 213.07 65.5956C213.235 65.6317 213.405 65.6315 213.569 65.5949L213.622 63.7053Z" fill="#8A5049"/>
<path d="M214.517 66.5914C214.369 66.6134 214.218 66.6228 214.068 66.6195C214.047 66.6176 214.028 66.6084 214.014 66.5936C214 66.5788 213.992 66.5595 213.991 66.5391C213.991 66.5287 213.993 66.5184 213.997 66.5089C214.001 66.4994 214.007 66.4908 214.015 66.4836C214.022 66.4765 214.031 66.4709 214.041 66.4673C214.051 66.4637 214.061 66.4622 214.072 66.4627C214.404 66.4795 214.736 66.4176 215.04 66.2821C215.345 66.1466 215.613 65.9413 215.823 65.6828C215.829 65.6743 215.836 65.6671 215.845 65.6615C215.853 65.6559 215.863 65.6521 215.873 65.6502C215.883 65.6484 215.894 65.6485 215.904 65.6506C215.914 65.6528 215.923 65.6569 215.932 65.6627C215.94 65.6685 215.947 65.6759 215.953 65.6845C215.958 65.6931 215.962 65.7027 215.964 65.7128C215.966 65.7229 215.966 65.7332 215.964 65.7432C215.962 65.7533 215.957 65.7628 215.952 65.7712C215.599 66.2218 215.084 66.5163 214.517 66.5914Z" fill="#263238"/>
<path d="M221.38 64.1833C221.303 64.49 221.167 64.7784 220.978 65.0317C220.789 65.285 220.551 65.4982 220.279 65.6588C219.552 66.0849 218.974 65.4859 218.998 64.6859C219.018 63.9662 219.424 62.8767 220.243 62.7762C220.422 62.7572 220.603 62.7832 220.769 62.8521C220.935 62.9209 221.081 63.0302 221.194 63.1701C221.307 63.3101 221.383 63.4761 221.416 63.6531C221.448 63.83 221.436 64.0123 221.38 64.1833Z" fill="#FFB27D"/>
<path d="M216.985 61.9237C216.963 61.9263 216.942 61.924 216.922 61.917C216.902 61.9101 216.883 61.8986 216.868 61.8835C216.728 61.744 216.556 61.6399 216.367 61.5798C216.179 61.5197 215.979 61.5053 215.783 61.5377C215.745 61.5407 215.707 61.5299 215.676 61.5072C215.645 61.4845 215.623 61.4514 215.615 61.414C215.606 61.3766 215.611 61.3373 215.628 61.3032C215.646 61.2691 215.676 61.2425 215.711 61.2282C215.957 61.1859 216.209 61.2025 216.447 61.2765C216.685 61.3506 216.903 61.4801 217.081 61.6543C217.096 61.6686 217.108 61.6857 217.116 61.7047C217.124 61.7237 217.128 61.7442 217.128 61.7649C217.128 61.7856 217.124 61.806 217.116 61.825C217.108 61.844 217.096 61.8612 217.081 61.8754C217.069 61.8894 217.054 61.9009 217.038 61.9092C217.021 61.9175 217.003 61.9224 216.985 61.9237Z" fill="#263238"/>
<path d="M212.064 61.6707C212.044 61.6672 212.025 61.6597 212.009 61.6487C211.992 61.6376 211.978 61.6232 211.967 61.6064C211.955 61.5897 211.947 61.5707 211.942 61.5505C211.938 61.5304 211.937 61.5096 211.941 61.4893C211.945 61.469 211.953 61.4497 211.964 61.4325C211.975 61.4153 211.99 61.4006 212.007 61.3893C212.209 61.2421 212.443 61.1456 212.69 61.1078C212.937 61.07 213.189 61.0921 213.426 61.1722C213.464 61.1882 213.494 61.2188 213.51 61.2572C213.526 61.2957 213.526 61.3389 213.51 61.3772C213.502 61.3966 213.491 61.4143 213.477 61.4292C213.462 61.4442 213.445 61.4561 213.426 61.4644C213.407 61.4726 213.386 61.4769 213.366 61.4772C213.345 61.4774 213.324 61.4735 213.305 61.4657C213.117 61.4038 212.918 61.3879 212.723 61.4194C212.528 61.4509 212.343 61.5288 212.184 61.6466C212.149 61.6703 212.105 61.679 212.064 61.6707Z" fill="#263238"/>
<path d="M215.636 62.8127L214.997 62.6117C214.997 62.6117 215.314 63.1384 215.636 62.8127Z" fill="#263238"/>
<path d="M213.848 97.034L218.512 124.638L235.975 119.456C234.561 104.866 230.945 97.6411 227.792 94.9756L213.848 97.034Z" fill="#560000"/>
<path opacity="0.2" d="M220.921 112.544L224.412 106.803L223.813 102.763L220.921 112.544Z" fill="black"/>
<path d="M225.934 74.2868C226.232 74.5522 226.597 74.8577 226.935 75.1391C227.272 75.4206 227.638 75.71 227.999 75.9834C228.718 76.5262 229.441 77.0609 230.193 77.5433C231.621 78.5112 233.185 79.2631 234.833 79.7746C234.929 79.8068 235.029 79.8229 235.126 79.847L235.27 79.8832C235.315 79.8832 235.27 79.8832 235.27 79.8832H235.214C235.054 79.8832 234.993 79.9555 235.037 79.9395C235.268 79.7837 235.466 79.5843 235.62 79.3525C236.11 78.6488 236.532 77.9003 236.881 77.1172C237.283 76.3131 237.637 75.4487 237.97 74.5803C238.304 73.7119 238.645 72.8314 238.958 71.963C239.028 71.7646 239.168 71.5992 239.353 71.499C239.537 71.3989 239.753 71.3712 239.957 71.4215C240.16 71.4717 240.338 71.5963 240.455 71.7708C240.572 71.9453 240.62 72.1572 240.589 72.3651C240.315 74.3078 239.875 76.2232 239.272 78.0901C238.953 79.0885 238.527 80.0496 238.002 80.9566C237.667 81.543 237.216 82.0546 236.677 82.4602C236.234 82.7729 235.708 82.944 235.166 82.9507C235.087 82.9567 235.008 82.9567 234.929 82.9507L234.74 82.9266L234.535 82.8904C234.403 82.8663 234.262 82.8502 234.134 82.818C233.097 82.5988 232.087 82.27 231.121 81.8371C230.187 81.4272 229.284 80.9516 228.417 80.4139C227.559 79.8948 226.729 79.3312 225.93 78.7253C225.531 78.4251 225.142 78.1155 224.761 77.7966C224.36 77.4709 224.014 77.1614 223.612 76.7794C223.306 76.4686 223.13 76.0515 223.122 75.6147C223.115 75.1779 223.275 74.7548 223.571 74.4332C223.866 74.1116 224.274 73.9162 224.71 73.8874C225.145 73.8587 225.575 73.9988 225.91 74.2788L225.934 74.2868Z" fill="#FFB27D"/>
<path d="M223.923 72.8996C226.333 72.7589 227.249 74.0133 228.241 75.3641C227.751 77.519 225.14 81.2057 225.14 81.2057C225.14 81.2057 219.58 73.1569 223.923 72.8996Z" fill="#F99746"/>
<path d="M238.835 72.1596L239.438 68.6177L241.619 71.1988C241.619 71.1988 240.856 73.2089 239.486 73.3657L238.835 72.1596Z" fill="#FFB27D"/>
<path d="M241.43 67.657L242.74 68.8068C242.855 68.9085 242.929 69.0491 242.947 69.2018C242.966 69.3545 242.928 69.5087 242.84 69.635L241.39 71.6894L239.441 68.6179L240.647 67.6449C240.758 67.5562 240.898 67.5089 241.04 67.5111C241.183 67.5133 241.321 67.5648 241.43 67.657Z" fill="#FFB27D"/>
<path d="M218.459 167.587C218.866 167.29 219.32 167.062 219.801 166.912C219.801 166.912 222.179 165.565 223.416 161.525L226.168 160.837C226.236 160.82 226.308 160.818 226.377 160.83C226.446 160.843 226.512 160.87 226.57 160.91C226.628 160.95 226.677 161.001 226.714 161.062C226.75 161.122 226.774 161.189 226.783 161.259C226.807 161.476 226.823 161.726 226.851 161.927C226.881 162.364 226.881 162.803 226.851 163.241C226.827 164.604 226.674 167.664 226.674 167.664H226.357C226.355 166.732 226.298 165.802 226.188 164.877C226.027 163.977 225.385 165.042 225.039 166.059C224.694 167.077 223.251 168.166 221.171 168.214C218.74 168.287 217.752 168.178 218.459 167.587Z" fill="#263238"/>
<path d="M249.135 158.095C249.213 157.597 249.372 157.115 249.605 156.668C249.605 156.668 250.332 154.031 248.348 150.3L249.802 147.867C249.837 147.806 249.886 147.754 249.943 147.713C250.001 147.672 250.066 147.644 250.136 147.631C250.205 147.617 250.276 147.619 250.345 147.636C250.413 147.652 250.477 147.683 250.533 147.727C250.706 147.863 250.895 148.028 251.055 148.129C251.386 148.418 251.697 148.728 251.987 149.057C252.935 150.038 255 152.314 255 152.314L254.775 152.543C254.115 151.885 253.416 151.267 252.682 150.694C251.935 150.171 252.24 151.373 252.71 152.342C253.18 153.311 252.935 155.096 251.505 156.604C249.826 158.397 249.055 159.02 249.135 158.095Z" fill="#263238"/>
<path d="M211.94 42.9889C211.85 43.0131 211.755 43.0112 211.665 42.9835C211.576 42.9558 211.496 42.9034 211.436 42.8323L208.771 39.7488C208.591 39.5386 208.359 39.3785 208.099 39.2839C207.838 39.1894 207.558 39.1637 207.284 39.2093L187.052 42.6047C186.779 42.6504 186.522 42.7657 186.306 42.9396C186.091 43.1135 185.924 43.34 185.821 43.5972L184.311 47.3868C184.287 47.4479 184.251 47.5038 184.206 47.5511C184.16 47.5985 184.106 47.6364 184.046 47.6628C183.986 47.6891 183.921 47.7034 183.855 47.7047C183.79 47.7061 183.725 47.6945 183.663 47.6707C183.602 47.6468 183.546 47.6111 183.499 47.5657C183.452 47.5203 183.414 47.466 183.387 47.4059C183.361 47.3458 183.347 47.2811 183.345 47.2155C183.344 47.1499 183.356 47.0846 183.38 47.0235L184.89 43.2339C185.057 42.8192 185.328 42.4542 185.676 42.1734C186.024 41.8927 186.438 41.7056 186.878 41.63L207.107 38.2356C207.549 38.1638 208.001 38.206 208.422 38.358C208.843 38.5101 209.218 38.767 209.511 39.1044L212.172 42.189C212.227 42.2522 212.265 42.3284 212.283 42.4104C212.3 42.4924 212.297 42.5775 212.273 42.6578C212.248 42.7381 212.204 42.8108 212.144 42.8693C212.084 42.9277 212.01 42.97 211.929 42.992L211.94 42.9889Z" fill="#9A0002"/>
<path d="M242.121 83.7203L235.096 41.7163C234.919 40.6836 234.341 39.7631 233.488 39.1555C232.636 38.5479 231.578 38.3023 230.545 38.4723L167.746 49.0478C166.713 49.2231 165.792 49.8009 165.184 50.6548C164.576 51.5087 164.33 52.5689 164.502 53.6031L171.525 95.6031C171.702 96.6363 172.28 97.5574 173.133 98.1652C173.985 98.773 175.044 99.0182 176.077 98.8472L238.858 88.2807C239.371 88.1957 239.863 88.0103 240.304 87.7351C240.746 87.4599 241.13 87.1003 241.433 86.6768C241.736 86.2533 241.953 85.7742 242.071 85.2669C242.189 84.7596 242.206 84.2341 242.121 83.7203ZM216.335 81.2504C213.336 81.7521 210.255 81.3007 207.527 79.9596C204.798 78.6185 202.558 76.455 201.121 73.7732C199.685 71.0913 199.124 68.0257 199.517 65.0069C199.91 61.9881 201.237 59.1678 203.313 56.9422C205.389 54.7165 208.109 53.1973 211.09 52.5978C214.071 51.9984 217.165 52.3489 219.936 53.6C222.707 54.8512 225.016 56.9402 226.54 59.5736C228.063 62.2071 228.724 65.2527 228.43 68.2826C228.313 69.4936 228.043 70.685 227.627 71.8283C226.75 74.2616 225.242 76.4175 223.258 78.0743C221.274 79.731 218.884 80.8287 216.336 81.2543L216.335 81.2504Z" fill="#9A0002"/>
<path d="M171.468 96.0137C171.432 95.8844 171.404 95.7529 171.384 95.6201L164.356 53.6211C164.177 52.5436 164.433 51.4388 165.067 50.5492C165.7 49.6595 166.661 49.0576 167.737 48.8753L230.516 38.305C231.592 38.1265 232.695 38.3822 233.583 39.0158C234.471 39.6495 235.072 40.6097 235.254 41.6863L242.3 83.7054C242.478 84.7833 242.223 85.8883 241.59 86.7786C240.956 87.6688 239.996 88.2717 238.92 88.4551L176.111 99.0085C175.103 99.1752 174.069 98.9617 173.209 98.409C172.349 97.8564 171.725 97.0041 171.457 96.0168L171.468 96.0137ZM234.855 41.3898C234.609 40.4806 234.035 39.6954 233.243 39.1865C232.452 38.6776 231.499 38.4813 230.571 38.6356L167.783 49.1876C166.794 49.3591 165.912 49.9142 165.33 50.7324C164.747 51.5507 164.511 52.5658 164.672 53.5572L171.712 95.5862C171.88 96.5765 172.434 97.4594 173.251 98.0419C174.068 98.6243 175.083 98.8588 176.073 98.6941L238.854 88.1276C239.842 87.9573 240.724 87.4031 241.307 86.5854C241.89 85.7678 242.126 84.753 241.966 83.7619L234.933 41.7435C234.913 41.6239 234.886 41.5063 234.855 41.3898ZM199.704 70.7187C199.582 70.2604 199.482 69.792 199.401 69.3184C199.056 67.2485 199.156 65.1284 199.695 63.1C200.235 61.0715 201.2 59.1814 202.527 57.5559C203.854 55.9304 205.512 54.607 207.391 53.6742C209.269 52.7414 211.325 52.2207 213.42 52.1469C215.515 52.073 217.601 52.4477 219.539 53.246C221.478 54.0443 223.223 55.2477 224.659 56.7758C226.095 58.3039 227.188 60.1215 227.866 62.1071C228.544 64.0926 228.79 66.2004 228.589 68.2896C228.473 69.5159 228.2 70.7223 227.777 71.8793C226.891 74.3396 225.366 76.5197 223.36 78.1953C221.353 79.871 218.938 80.9819 216.362 81.4138C212.753 82.022 209.048 81.2638 205.969 79.2867C202.889 77.3096 200.656 74.2553 199.704 70.7187ZM227.836 63.1261C227.114 60.4298 225.624 58.0022 223.549 56.1381C221.474 54.2741 218.902 53.0538 216.147 52.6256C213.391 52.1974 210.57 52.5797 208.026 53.726C205.482 54.8723 203.325 56.7333 201.817 59.0829C200.309 61.4325 199.514 64.1696 199.53 66.9617C199.546 69.7538 200.371 72.4807 201.906 74.8111C203.441 77.1415 205.619 78.9751 208.175 80.0892C210.732 81.2033 213.557 81.55 216.307 81.087C218.825 80.6644 221.186 79.5784 223.147 77.9406C225.108 76.3028 226.598 74.1722 227.464 71.7677C227.879 70.6369 228.145 69.4573 228.256 68.2582C228.38 67 228.336 65.731 228.125 64.4847C228.051 64.0217 227.955 63.5688 227.836 63.1261Z" fill="#9A0002"/>
<path opacity="0.9" d="M194.924 57.7131L170.02 61.8973C169.602 61.9675 169.321 62.3635 169.391 62.7817L169.609 64.0822C169.679 64.5004 170.075 64.7826 170.493 64.7123L195.397 60.5282C195.814 60.458 196.096 60.062 196.026 59.6438L195.808 58.3433C195.738 57.9251 195.342 57.6429 194.924 57.7131Z" fill="white"/>
<path opacity="0.9" d="M193.828 63.1052L172.822 66.6343C172.404 66.7046 172.122 67.1005 172.192 67.5188L172.411 68.8193C172.481 69.2375 172.876 69.5196 173.294 69.4494L194.3 65.9202C194.718 65.85 195 65.4541 194.93 65.0358L194.711 63.7353C194.641 63.3171 194.246 63.035 193.828 63.1052Z" fill="white"/>
<path opacity="0.9" d="M179.644 79.3226L173.4 80.3716L173.572 81.3945L179.816 80.3455L179.644 79.3226Z" fill="white"/>
<path opacity="0.9" d="M186.085 78.2421L181.05 79.0881L181.221 80.1111L186.257 79.2651L186.085 78.2421Z" fill="white"/>
<path opacity="0.9" d="M188.26 80.243L173.787 82.6746L173.959 83.6975L188.431 81.266L188.26 80.243Z" fill="white"/>
<path opacity="0.9" d="M190.17 76.0793L173.097 78.874L173.265 79.9028L190.338 77.1081L190.17 76.0793Z" fill="white"/>
<path opacity="0.9" d="M187.663 89.7503C188.576 88.4682 188.277 86.6883 186.996 85.7748C185.715 84.8613 183.937 85.1601 183.024 86.4422C182.111 87.7243 182.41 89.5042 183.691 90.4177C184.972 91.3312 186.75 91.0324 187.663 89.7503Z" fill="white"/>
<path opacity="0.9" d="M180.192 91.004C181.105 89.7219 180.807 87.942 179.526 87.0285C178.244 86.115 176.466 86.4138 175.553 87.6959C174.64 88.978 174.939 90.7579 176.22 91.6714C177.501 92.5849 179.28 92.2861 180.192 91.004Z" fill="white"/>
<path d="M193.813 30.0799L198.482 29.7416C199.059 29.7105 199.626 29.8927 200.076 30.2534C200.527 30.614 200.828 31.1279 200.924 31.6969L202.161 39.7523C202.177 39.8578 202.185 39.9645 202.184 40.0713C202.189 40.5674 202.004 41.0467 201.666 41.4102C201.329 41.7737 200.864 41.9938 200.369 42.0249L195.703 42.3788C195.178 42.4063 194.658 42.257 194.227 41.9546C193.796 41.6522 193.479 41.2143 193.326 40.7106C193.289 40.6097 193.261 40.5055 193.243 40.3994L192.006 32.344C191.96 32.0745 191.972 31.7984 192.041 31.5338C192.11 31.2692 192.233 31.0221 192.404 30.8085C192.574 30.5948 192.788 30.4195 193.031 30.294C193.273 30.1685 193.54 30.0955 193.813 30.0799ZM196.668 33.3165C196.452 33.3303 196.24 33.3897 196.048 33.4906C195.856 33.5915 195.687 33.7318 195.553 33.9023C195.418 34.0728 195.321 34.2697 195.268 34.4802C195.215 34.6907 195.206 34.91 195.243 35.1239C195.316 35.5791 195.555 35.991 195.915 36.2798C196.274 36.5687 196.728 36.7138 197.188 36.6871C197.405 36.6739 197.617 36.615 197.809 36.5142C198.002 36.4135 198.171 36.2732 198.305 36.1026C198.44 35.9319 198.537 35.7348 198.59 35.524C198.643 35.3133 198.651 35.0937 198.613 34.8797C198.539 34.4249 198.3 34.0135 197.941 33.7249C197.582 33.4362 197.128 33.2907 196.668 33.3165Z" fill="#263238"/>
<path d="M198.024 29.6689L193.293 30.0571C193.011 30.0815 192.737 30.1611 192.487 30.2914C192.236 30.4217 192.014 30.6001 191.832 30.8164C191.65 31.0326 191.513 31.2826 191.428 31.552C191.343 31.8213 191.312 32.1048 191.336 32.3862L192.028 40.6002C192.035 40.7081 192.054 40.8149 192.084 40.9187C192.202 41.4204 192.495 41.8636 192.911 42.1682C193.326 42.4727 193.837 42.6184 194.351 42.579L199.071 42.1939C199.584 42.1511 200.065 41.9248 200.426 41.5565C200.786 41.1882 201.002 40.7024 201.034 40.188C201.045 40.0798 201.045 39.9709 201.035 39.8627L200.339 31.6497C200.292 31.0813 200.022 30.5544 199.588 30.1836C199.155 29.8127 198.593 29.6278 198.024 29.6689ZM195.944 33.3401C196.283 33.3086 196.624 33.3788 196.924 33.5416C197.223 33.7045 197.468 33.9527 197.626 34.2547C197.784 34.5568 197.849 34.899 197.812 35.2379C197.775 35.5768 197.638 35.8971 197.419 36.1581C197.2 36.4191 196.908 36.609 196.58 36.7037C196.253 36.7983 195.904 36.7935 195.58 36.6899C195.255 36.5862 194.968 36.3883 194.756 36.1214C194.544 35.8544 194.416 35.5305 194.389 35.1907C194.353 34.7399 194.497 34.2932 194.787 33.947C195.078 33.6008 195.494 33.3829 195.944 33.3401Z" fill="#263238"/>
<path opacity="0.2" d="M198.024 29.6689L193.293 30.0571C193.011 30.0815 192.737 30.1611 192.487 30.2914C192.236 30.4217 192.014 30.6001 191.832 30.8164C191.65 31.0326 191.513 31.2826 191.428 31.552C191.343 31.8213 191.312 32.1048 191.336 32.3862L192.028 40.6002C192.035 40.7081 192.054 40.8149 192.084 40.9187C192.202 41.4204 192.495 41.8636 192.911 42.1682C193.326 42.4727 193.837 42.6184 194.351 42.579L199.071 42.1939C199.584 42.1511 200.065 41.9248 200.426 41.5565C200.786 41.1882 201.002 40.7024 201.034 40.188C201.045 40.0798 201.045 39.9709 201.035 39.8627L200.339 31.6497C200.292 31.0813 200.022 30.5544 199.588 30.1836C199.155 29.8127 198.593 29.6278 198.024 29.6689ZM195.944 33.3401C196.283 33.3086 196.624 33.3788 196.924 33.5416C197.223 33.7045 197.468 33.9527 197.626 34.2547C197.784 34.5568 197.849 34.899 197.812 35.2379C197.775 35.5768 197.638 35.8971 197.419 36.1581C197.2 36.4191 196.908 36.609 196.58 36.7037C196.253 36.7983 195.904 36.7935 195.58 36.6899C195.255 36.5862 194.968 36.3883 194.756 36.1214C194.544 35.8544 194.416 35.5305 194.389 35.1907C194.353 34.7399 194.497 34.2932 194.787 33.947C195.078 33.6008 195.494 33.3829 195.944 33.3401Z" fill="white"/>
<path d="M158.058 30.6684V160.153C158.059 161.164 157.86 162.166 157.473 163.1C157.086 164.034 156.519 164.883 155.803 165.599C155.088 166.314 154.24 166.881 153.305 167.268C152.371 167.655 151.369 167.854 150.358 167.854H82.6681C81.6567 167.854 80.6552 167.655 79.7208 167.268C78.7864 166.881 77.9373 166.314 77.2222 165.599C76.507 164.884 75.9397 164.035 75.5528 163.1C75.1658 162.166 74.9667 161.164 74.9668 160.153V30.6684C74.9665 29.6569 75.1655 28.6553 75.5525 27.7207C75.9394 26.7862 76.5066 25.937 77.2218 25.2218C77.937 24.5065 78.7861 23.9392 79.7205 23.5521C80.655 23.1651 81.6566 22.9659 82.6681 22.9661H150.355C151.367 22.9657 152.369 23.1646 153.303 23.5515C154.238 23.9385 155.087 24.5058 155.803 25.2211C156.518 25.9364 157.086 26.7856 157.473 27.7203C157.86 28.655 158.059 29.6567 158.058 30.6684Z" fill="white"/>
<path d="M146.146 155.948V167.431C146.146 167.572 146.146 167.714 146.138 167.852H87.3314C87.3253 167.714 87.3223 167.572 87.3223 167.431V155.948C87.3223 150.709 90.704 146.423 94.8364 146.423H138.632C142.764 146.423 146.146 150.709 146.146 155.948Z" fill="#F4B903"/>
<path d="M150.357 168.819H82.6684C80.3702 168.817 78.1669 167.903 76.5419 166.277C74.9168 164.652 74.0027 162.449 74 160.151V30.6664C74.0032 28.3685 74.9176 26.1658 76.5426 24.5412C78.1676 22.9165 80.3706 22.0027 82.6684 22H150.354C152.653 22.0027 154.856 22.9168 156.481 24.5419C158.106 26.1669 159.02 28.3702 159.023 30.6684V160.153C159.02 162.45 158.106 164.653 156.481 166.277C154.857 167.902 152.655 168.816 150.357 168.819ZM82.6684 23.9342C80.8828 23.936 79.171 24.6461 77.9083 25.9086C76.6456 27.1711 75.9353 28.8828 75.9332 30.6684V160.153C75.9358 161.938 76.6464 163.65 77.9089 164.912C79.1715 166.174 80.8831 166.884 82.6684 166.886H150.354C152.14 166.884 153.852 166.174 155.115 164.911C156.377 163.648 157.088 161.937 157.09 160.151V30.6664C157.088 28.8808 156.377 27.169 155.115 25.9066C153.852 24.6441 152.14 23.934 150.354 23.9322L82.6684 23.9342Z" fill="#960606"/>
<path d="M116.392 160.072L112.606 156.683L113.67 155.494L116.115 157.684L119.498 152.843L120.805 153.756L116.392 160.072Z" fill="white"/>
<path d="M116.706 163.661C115.281 163.661 113.888 163.239 112.703 162.447C111.519 161.656 110.596 160.531 110.05 159.214C109.505 157.898 109.362 156.45 109.64 155.052C109.918 153.655 110.604 152.371 111.612 151.364C112.619 150.357 113.903 149.671 115.3 149.393C116.698 149.115 118.146 149.257 119.462 149.802C120.779 150.348 121.904 151.271 122.695 152.456C123.487 153.64 123.909 155.033 123.909 156.458C123.907 158.368 123.148 160.199 121.797 161.549C120.447 162.9 118.615 163.659 116.706 163.661ZM116.706 149.543C115.338 149.543 114.001 149.949 112.863 150.708C111.726 151.468 110.839 152.548 110.316 153.812C109.792 155.076 109.655 156.466 109.922 157.808C110.189 159.149 110.848 160.381 111.815 161.349C112.782 162.316 114.014 162.974 115.356 163.241C116.697 163.508 118.088 163.371 119.351 162.847C120.615 162.324 121.695 161.437 122.455 160.3C123.215 159.163 123.62 157.826 123.62 156.458C123.618 154.625 122.889 152.867 121.592 151.571C120.296 150.275 118.539 149.546 116.706 149.543Z" fill="white"/>
<path d="M121 114H113V124H121V114Z" fill="#E6D9D9"/>
<path d="M124 115H110L117 108L124 115Z" fill="#E6D9D9"/>
<path d="M145 132.052H89V136.243H145V132.052Z" fill="#ECEAFF"/>
<path d="M133.634 132.052H89V136.243H133.634V132.052Z" fill="#F4B903"/>
<path d="M147 67.4991C146.998 72.1606 145.892 76.7553 143.774 80.9075C141.655 85.0596 138.584 88.6512 134.811 91.3884C134.671 91.4905 134.531 91.5917 134.385 91.6887C130.188 94.6166 125.302 96.4037 120.206 96.8746C115.11 97.3456 109.979 96.4844 105.316 94.3754C104.857 94.1667 104.403 93.946 103.955 93.7135C99.1492 91.2249 95.1195 87.4639 92.3059 82.841C89.4923 78.2181 88.0027 72.911 88 67.4991C88 51.208 101.207 38 117.5 38C133.794 38 147 51.2088 147 67.4991Z" fill="#F9DDBF"/>
<path d="M142 83.7304C140.013 86.8294 137.471 89.5311 134.505 91.6984C134.365 91.801 134.225 91.9026 134.08 92C130.579 91.3166 126.333 86.8238 122.729 84.9333C122.143 84.6133 121.519 84.3693 120.871 84.2071C118.781 83.7304 115.13 85.3971 111.432 87.122C109.224 88.1471 107.004 89.1988 105.085 89.8275L105.035 89.8446C103.306 90.4059 101.826 90.6203 100.832 90.1624C100.639 90.075 100.461 89.957 100.305 89.813C99.6173 89.1871 98.9942 88.4931 98.445 87.7413C96.2088 84.6137 95.6567 80.1723 103.621 74.8312C106.185 73.1123 94.5781 73.6822 99.4124 61.3546C102.745 52.8569 108.983 43.763 117.355 44.0047C117.355 44.0047 120.871 44.0047 124.511 46.3421C127.371 48.178 131.456 56.5321 133.587 62.0611C135.718 67.5902 131.553 71.0928 134.913 74.0649C138.421 77.1626 141.343 80.5481 142 83.7304Z" fill="#560000"/>
<path d="M109 50.2299C109 50.2299 117.878 41.2483 123.509 49.4606C123.509 49.4606 126.987 48.4452 128.506 55.6268C130.056 62.9545 127.686 67.4333 125.178 66.0546C123.569 65.1717 122.351 68 122.351 68L109 50.2299Z" fill="#560000"/>
<path d="M135 91.4909C134.86 91.5911 134.719 91.6905 134.573 91.7857C130.356 94.6602 125.447 96.4146 120.327 96.8769C115.207 97.3393 110.052 96.4938 105.368 94.4233C104.906 94.2184 104.45 94.0018 104 93.7736C104.37 92.419 104.819 91.0861 105.344 89.7812C105.359 89.742 105.375 89.7027 105.391 89.6635C107.82 83.6165 111.328 78.8558 111.328 78.8558H111.347C111.353 78.8552 111.359 78.8552 111.364 78.8558H111.396H111.432C111.447 78.8558 111.463 78.8558 111.481 78.8508C111.53 78.8508 111.592 78.8416 111.662 78.8333C111.684 78.8333 111.704 78.8283 111.727 78.8274L111.783 78.8224L111.838 78.8174H111.88H111.923L112.36 78.7782C113.486 78.5927 113.001 76.4504 112.995 74.268C112.995 73.7769 112.985 73.2808 112.973 72.7972L112.965 72.5575C112.965 72.4848 112.965 72.413 112.959 72.3429C112.953 72.2727 112.959 72.2176 112.953 72.1566C112.953 72.1332 112.953 72.109 112.953 72.0864C112.953 71.9319 112.942 71.7799 112.936 71.6313C112.936 71.5068 112.927 71.3865 112.922 71.2696C112.896 70.7067 112.869 70.2055 112.846 69.8088L112.839 69.676C112.838 69.6721 112.838 69.6682 112.839 69.6643C112.839 69.6368 112.839 69.6109 112.834 69.5808C112.834 69.5165 112.825 69.4555 112.822 69.3996C112.822 69.3595 112.816 69.3227 112.814 69.2868C112.811 69.2509 112.809 69.1933 112.805 69.1532C112.806 69.1468 112.806 69.1404 112.805 69.134C112.801 69.0705 112.798 69.0179 112.795 68.9761C112.795 68.9619 112.795 68.9494 112.795 68.9369L112.79 68.8667L121.315 67.2021L121.828 67.1036L122.365 67V67.0058C122.365 67.5546 122.372 68.0849 122.39 68.5969C122.597 74.4092 124.03 77.7784 125.125 78.0607C125.538 78.2662 126.462 78.3823 127.354 78.4842C128.294 78.5902 129.195 78.6821 129.44 78.8458C132.039 80.5655 134.136 85.5066 135 91.4909Z" fill="#FFB27D"/>
<path d="M122.641 66C122.641 66 125.288 61.7145 125.923 58.0517C126.376 55.4358 125.076 45.7401 115.567 47.1368C113.652 47.4093 111.821 48.1185 110.209 49.2122C108.145 50.6404 105.165 53.7251 108.496 62.1859L109.362 65.0441L122.641 66Z" fill="#560000"/>
<path d="M110.962 70.9995C110.962 70.9995 122.86 71.1951 122.867 63.8122C122.874 56.4293 124.416 51.483 116.82 51.0453C109.225 50.6076 107.746 53.4244 107.142 55.8874C106.538 58.3503 107.868 70.7582 110.962 70.9995Z" fill="#FFB27D"/>
<path d="M111 50.501C111 50.501 114.379 59.164 119.564 60.4444C124.749 61.7248 127 60.3911 127 60.3911C127 60.3911 123.022 57.3561 122.197 52.0575C122.197 52.0566 113.549 46.3778 111 50.501Z" fill="#560000"/>
<path d="M136.188 81.3093C134.072 78.4495 127.224 78 127.224 78C127.173 78.1372 125.743 81.9921 123.061 84.5655C122.655 84.959 122.216 85.3166 121.75 85.6343C117.942 88.2077 113.71 89.1229 111.805 86.7631C111.287 86.1207 110.938 85.2363 110.816 84.0783C110.634 82.3327 111.737 78.9153 112.062 78.3251C112.067 78.3174 112.021 78.3191 111.951 78.3251H111.908H111.866L111.812 78.3302L111.756 78.3354C111.734 78.3354 111.714 78.3354 111.692 78.3414C111.629 78.3465 111.567 78.3534 111.513 78.3594C111.496 78.3594 111.48 78.3594 111.464 78.3646H111.429H111.398C111.392 78.3639 111.386 78.3639 111.381 78.3646H111.362C109.6 78.5996 106.064 78.989 104.826 79.7928C104.755 79.8297 101.623 81.4869 98.8691 87.3687C98.5741 87.9978 98.2844 88.6789 98 89.412C99.8488 91.0936 101.901 92.5299 104.108 93.6863C104.552 93.9202 105.004 94.1427 105.462 94.3537C110.1 96.4801 115.204 97.3485 120.273 96.8736C125.343 96.3987 130.203 94.5969 134.378 91.6448C134.521 91.547 134.66 91.4449 134.802 91.342C136.316 90.2285 137.722 88.971 139 87.5866C138.166 84.9489 137.245 82.7401 136.188 81.3093Z" fill="#F4B903"/>
</g>
<defs>
<clipPath id="clip0_1660_90034">
<rect width="290" height="169.705" fill="white"/>
</clipPath>
</defs>
</svg>
