<svg width="16" height="17" viewBox="0 0 16 17" fill="none" xmlns="http://www.w3.org/2000/svg">
<g clip-path="url(#clip0_2736_27289)">
<path d="M5.5 6C5.5 6.66304 5.76339 7.29893 6.23223 7.76777C6.70107 8.23661 7.33696 8.5 8 8.5C8.66304 8.5 9.29893 8.23661 9.76777 7.76777C10.2366 7.29893 10.5 6.66304 10.5 6C10.5 5.33696 10.2366 4.70107 9.76777 4.23223C9.29893 3.76339 8.66304 3.5 8 3.5C7.33696 3.5 6.70107 3.76339 6.23223 4.23223C5.76339 4.70107 5.5 5.33696 5.5 6Z" stroke="#DA1414" stroke-width="1.5" stroke-linecap="round" stroke-linejoin="round"/>
<path d="M8 1C9.32608 1 10.5979 1.52678 11.5355 2.46447C12.4732 3.40215 13 4.67392 13 6C13 8.27133 9.61733 13.9667 8.41667 15.7767C8.37106 15.8454 8.30914 15.9018 8.23644 15.9408C8.16374 15.9799 8.08251 16.0003 8 16.0003C7.91749 16.0003 7.83626 15.9799 7.76356 15.9408C7.69086 15.9018 7.62894 15.8454 7.58333 15.7767C6.38267 13.9667 3 8.27133 3 6C3 4.67392 3.52678 3.40215 4.46447 2.46447C5.40215 1.52678 6.67392 1 8 1V1Z" stroke="#DA1414" stroke-width="1.5" stroke-linecap="round" stroke-linejoin="round"/>
</g>
<defs>
<clipPath id="clip0_2736_27289">
<rect width="16" height="16" fill="white" transform="translate(0 0.5)"/>
</clipPath>
</defs>
</svg>
