<svg width="33" height="34" viewBox="0 0 33 34" fill="none" xmlns="http://www.w3.org/2000/svg">
<path d="M8.76174 0H21.8939C22.485 0 23.057 0.209474 23.5084 0.591233L31.4477 7.30657C32.0093 7.78158 32.3332 8.4798 32.3332 9.21534V30.1389C32.3332 33.1231 32.2991 33.3333 29.2379 33.3333H8.76174C5.70058 33.3333 5.6665 33.1231 5.6665 30.1389V3.19444C5.6665 0.210208 5.70058 0 8.76174 0Z" fill="#E9EAEE"/>
<rect y="17.6667" width="19" height="11" rx="2" fill="#E0B878"/>
<path d="M4.66618 21.7747C5.00685 21.7747 5.31018 21.8541 5.57618 22.0127C5.84218 22.1714 6.04985 22.4001 6.19918 22.6987C6.35318 22.9974 6.43018 23.3474 6.43018 23.7487C6.43018 24.1501 6.35318 24.5001 6.19918 24.7987C6.04985 25.0927 5.84218 25.3191 5.57618 25.4777C5.31018 25.6364 5.00685 25.7157 4.66618 25.7157C4.29285 25.7157 3.97551 25.6224 3.71418 25.4357C3.45751 25.2444 3.28018 24.9947 3.18218 24.6867V27.4867H2.54518V21.8237H3.18218V22.8037C3.28018 22.4957 3.45751 22.2484 3.71418 22.0617C3.97551 21.8704 4.29285 21.7747 4.66618 21.7747ZM4.48418 22.3417C4.23685 22.3417 4.01285 22.4001 3.81218 22.5167C3.61151 22.6287 3.45518 22.7921 3.34318 23.0067C3.23118 23.2214 3.17518 23.4687 3.17518 23.7487C3.17518 24.0287 3.23118 24.2761 3.34318 24.4907C3.45518 24.7007 3.61151 24.8641 3.81218 24.9807C4.01285 25.0974 4.23685 25.1557 4.48418 25.1557C4.88085 25.1557 5.19585 25.0321 5.42918 24.7847C5.66718 24.5327 5.78618 24.1874 5.78618 23.7487C5.78618 23.3101 5.66718 22.9671 5.42918 22.7197C5.19585 22.4677 4.88085 22.3417 4.48418 22.3417ZM9.28498 21.7607C9.73298 21.7607 10.0946 21.9054 10.37 22.1947C10.6453 22.4794 10.783 22.8924 10.783 23.4337V25.6667H10.146V23.4897C10.146 23.1071 10.048 22.8131 9.85198 22.6077C9.65598 22.4024 9.38998 22.2997 9.05398 22.2997C8.70398 22.2997 8.42398 22.4141 8.21398 22.6427C8.00398 22.8667 7.89898 23.1957 7.89898 23.6297V25.6667H7.26198V21.8237H7.89898V22.7337C7.99698 22.4211 8.16964 22.1807 8.41698 22.0127C8.66898 21.8447 8.95831 21.7607 9.28498 21.7607ZM13.335 21.7747C13.7084 21.7747 14.0234 21.8681 14.28 22.0547C14.5414 22.2414 14.7234 22.4911 14.826 22.8037V21.8237H15.463V25.7297C15.463 26.0844 15.3884 26.3994 15.239 26.6747C15.0897 26.9501 14.8797 27.1647 14.609 27.3187C14.3384 27.4727 14.0234 27.5497 13.664 27.5497C13.146 27.5497 12.7237 27.4237 12.397 27.1717C12.0704 26.9244 11.8627 26.5884 11.774 26.1637H12.404C12.4787 26.4204 12.6187 26.6211 12.824 26.7657C13.034 26.9151 13.3024 26.9897 13.629 26.9897C13.9744 26.9897 14.259 26.8777 14.483 26.6537C14.7117 26.4344 14.826 26.1264 14.826 25.7297V24.6867C14.7234 24.9994 14.5414 25.2491 14.28 25.4357C14.0234 25.6224 13.7084 25.7157 13.335 25.7157C12.9944 25.7157 12.691 25.6364 12.425 25.4777C12.159 25.3191 11.949 25.0927 11.795 24.7987C11.6457 24.5001 11.571 24.1501 11.571 23.7487C11.571 23.3474 11.6457 22.9974 11.795 22.6987C11.949 22.4001 12.159 22.1714 12.425 22.0127C12.691 21.8541 12.9944 21.7747 13.335 21.7747ZM13.517 22.3417C13.125 22.3417 12.81 22.4677 12.572 22.7197C12.3387 22.9671 12.222 23.3101 12.222 23.7487C12.222 24.1874 12.3387 24.5327 12.572 24.7847C12.81 25.0321 13.125 25.1557 13.517 25.1557C13.769 25.1557 13.993 25.0974 14.189 24.9807C14.3897 24.8641 14.546 24.7007 14.658 24.4907C14.77 24.2761 14.826 24.0287 14.826 23.7487C14.826 23.4687 14.77 23.2214 14.658 23.0067C14.546 22.7921 14.3897 22.6287 14.189 22.5167C13.993 22.4001 13.769 22.3417 13.517 22.3417Z" fill="white"/>
</svg>
