<svg width="14" height="15" viewBox="0 0 14 15" fill="none" xmlns="http://www.w3.org/2000/svg">
<path d="M3.33333 2.93757H6.16667C6.21087 2.93757 6.25326 2.95513 6.28452 2.98638C6.31577 3.01764 6.33333 3.06003 6.33333 3.10424V3.7709C6.33299 3.83427 6.35108 3.89637 6.38541 3.94964C6.41974 4.00291 6.46882 4.04504 6.52667 4.0709C6.57288 4.08006 6.62045 4.08006 6.66667 4.0709C6.74507 4.0707 6.82079 4.04231 6.88 3.9909L8.88 2.32424C8.9135 2.29727 8.94134 2.26395 8.96194 2.2262C8.98253 2.18845 8.99546 2.147 9 2.10424C8.99925 2.05492 8.98819 2.00631 8.96752 1.96153C8.94685 1.91676 8.91704 1.8768 8.88 1.84424L6.88 0.177569C6.83107 0.136808 6.77149 0.110916 6.70831 0.102956C6.64513 0.0949963 6.58098 0.105302 6.52348 0.132654C6.46597 0.160006 6.4175 0.203259 6.3838 0.257296C6.3501 0.311333 6.33259 0.373891 6.33333 0.437569V1.10424C6.33333 1.14844 6.31577 1.19083 6.28452 1.22209C6.25326 1.25334 6.21087 1.2709 6.16667 1.2709H3.33333C2.58189 1.2709 1.86122 1.56941 1.32986 2.10077C0.798511 2.63212 0.5 3.35279 0.5 4.10424V10.7709C0.501761 11.5218 0.800837 12.2415 1.33181 12.7724C1.86278 13.3034 2.58243 13.6025 3.33333 13.6042C3.55435 13.6042 3.76631 13.5164 3.92259 13.3602C4.07887 13.2039 4.16667 12.9919 4.16667 12.7709C4.16667 12.5499 4.07887 12.3379 3.92259 12.1816C3.76631 12.0254 3.55435 11.9376 3.33333 11.9376C3.02445 11.9358 2.72872 11.8123 2.51031 11.5939C2.2919 11.3755 2.16842 11.0798 2.16667 10.7709V4.10424C2.16667 3.79482 2.28958 3.49807 2.50838 3.27928C2.72717 3.06049 3.02391 2.93757 3.33333 2.93757Z" fill="#9A0002"/>
<path d="M7.12 14.691C7.17921 14.7424 7.25493 14.7708 7.33333 14.771C7.38177 14.7694 7.42939 14.7581 7.47333 14.7377C7.53118 14.7118 7.58026 14.6697 7.61459 14.6164C7.64892 14.5631 7.66701 14.501 7.66667 14.4377V13.771C7.66667 13.7268 7.68423 13.6844 7.71548 13.6531C7.74674 13.6219 7.78913 13.6043 7.83333 13.6043H10.6667C11.4176 13.6026 12.1372 13.3035 12.6682 12.7725C13.1992 12.2415 13.4982 11.5219 13.5 10.771V4.10433C13.5 3.35288 13.2015 2.63221 12.6701 2.10086C12.1388 1.56951 11.4181 1.271 10.6667 1.271C10.4457 1.271 10.2337 1.35879 10.0774 1.51507C9.92113 1.67135 9.83333 1.88332 9.83333 2.10433C9.83333 2.32534 9.92113 2.5373 10.0774 2.69359C10.2337 2.84987 10.4457 2.93766 10.6667 2.93766C10.9761 2.93766 11.2728 3.06058 11.4916 3.27937C11.7104 3.49816 11.8333 3.79491 11.8333 4.10433V10.771C11.8316 11.0799 11.7081 11.3756 11.4897 11.594C11.2713 11.8124 10.9755 11.9359 10.6667 11.9377H7.83333C7.78913 11.9377 7.74674 11.9201 7.71548 11.8888C7.68423 11.8576 7.66667 11.8152 7.66667 11.771V11.1043C7.66741 11.0407 7.6499 10.9781 7.6162 10.9241C7.5825 10.87 7.53403 10.8268 7.47653 10.7994C7.41902 10.7721 7.35487 10.7618 7.29169 10.7697C7.22851 10.7777 7.16893 10.8036 7.12 10.8443L5.12 12.511C5.08296 12.5436 5.05315 12.5835 5.03248 12.6283C5.01181 12.6731 5.00075 12.7217 5 12.771C4.99995 12.8195 5.01069 12.8674 5.03145 12.9112C5.0522 12.955 5.08245 12.9937 5.12 13.0243L7.12 14.691Z" fill="#9A0002"/>
</svg>
