<svg width="24" height="25" viewBox="0 0 24 25" fill="none" xmlns="http://www.w3.org/2000/svg">
<g clip-path="url(#clip0_496_10072)">
<path d="M6 8.5V21C6 21.8284 6.67157 22.5 7.5 22.5H16.5C17.3284 22.5 18 21.8284 18 21V8.5H6Z" fill="#EB5757"/>
<path opacity="0.3" fill-rule="evenodd" clip-rule="evenodd" d="M14 5V4.5C14 3.94772 13.5523 3.5 13 3.5H11C10.4477 3.5 10 3.94772 10 4.5V5H5.5C5.22386 5 5 5.22386 5 5.5V6C5 6.27614 5.22386 6.5 5.5 6.5H18.5C18.7761 6.5 19 6.27614 19 6V5.5C19 5.22386 18.7761 5 18.5 5H14Z" fill="#EB5757"/>
</g>
<defs>
<clipPath id="clip0_496_10072">
<rect width="24" height="24" fill="white" transform="translate(0 0.5)"/>
</clipPath>
</defs>
</svg>
